<svg width="163" height="14" viewBox="0 0 163 14" fill="none" xmlns="http://www.w3.org/2000/svg">
<g clip-path="url(#clip0_85_442)">
<path fill-rule="evenodd" clip-rule="evenodd" d="M133.872 0.700012H0V0.200012H133.872V0.700012Z" fill="#0C6B58"/>
<path d="M125.735 0.169715C125.657 0.170381 127.421 0.195569 127.759 0.217083C129.095 0.302173 130.653 0.391603 131.988 0.523379C136.069 0.926102 142.079 1.61997 146.078 2.62992C148.877 3.33678 151.751 5.03469 150.345 8.63671C149.675 10.3533 145.873 9.96462 146.145 7.88467C146.472 5.37658 149.575 6.24396 148.972 8.22984C148.956 8.28349 149.256 7.01938 148.87 6.57585C148.309 5.93133 147.004 5.72903 146.332 6.20628C142.884 8.65578 149.487 13.1929 151.458 9.09342C151.731 8.52426 151.781 7.86583 151.711 7.23575C151.625 6.46395 151.417 5.57637 150.995 4.87947C149.773 2.8617 146.584 2.04823 144.37 1.6437C138.176 0.512364 131.884 0.117146 125.735 0.169715Z" fill="#0C6B58"/>
<path d="M125.794 0.2639C125.686 0.266985 128.168 0.353734 128.64 0.371814C130.504 0.443318 132.374 0.452293 134.24 0.458278C140.053 0.476923 148.96 1.1726 155.591 3.0601C159.486 4.16888 162.903 5.9556 161.347 10.6405C160.605 12.8732 154.821 12.3184 154.97 9.62863C155.149 6.38516 159.55 7.41493 158.932 9.99289C158.915 10.0625 159.193 8.42392 158.608 7.86304C157.759 7.04797 155.925 6.82444 155.045 7.45904C150.529 10.7162 160.191 16.3779 162.476 11.0354C162.794 10.2937 162.791 9.44319 162.624 8.63274C162.42 7.63997 162.033 6.50142 161.371 5.61485C159.454 3.04793 154.925 2.18784 151.82 1.63183C143.222 0.092029 134.323 0.0203118 125.794 0.2639Z" fill="#0C6B58"/>
</g>
<defs>
<clipPath id="clip0_85_442">
<rect width="163" height="13.5" fill="white"/>
</clipPath>
</defs>
</svg>
