<svg width="66" height="30" viewBox="0 0 66 30" fill="none" xmlns="http://www.w3.org/2000/svg">
<path d="M49.0426 15.102C49.0426 7.30695 56.1957 0.987426 65.0163 0.987427L65.0163 29.2143C56.1931 29.2166 49.0426 22.8971 49.0426 15.102Z" fill="#FAED5F"/>
<path d="M32.9706 15.102C32.9706 7.30695 40.1238 0.987426 48.9443 0.987427L48.9443 29.2143C40.1212 29.2166 32.9706 22.8971 32.9706 15.102Z" fill="#0C6B58"/>
<path d="M32.9137 15.1363C32.9137 7.34119 25.7605 1.02167 16.9399 1.02167L16.9399 29.2486C25.7605 29.2509 32.9137 22.9313 32.9137 15.1363Z" fill="#27AB83"/>
<path d="M32.9137 15.1363C32.9137 7.34119 25.7605 1.02167 16.9399 1.02167L16.9399 29.2486C25.7605 29.2509 32.9137 22.9313 32.9137 15.1363Z" fill="#27AB83"/>
<path d="M16.8056 15.1363C16.8056 7.34119 9.65243 1.02167 0.831848 1.02167L0.831847 29.2486C9.65243 29.2509 16.8056 22.9313 16.8056 15.1363Z" fill="#8EEDC7"/>
</svg>
