<svg width="61" height="19" viewBox="0 0 61 19" fill="none" xmlns="http://www.w3.org/2000/svg">
<path d="M5.74646 2.09705C5.18396 2.09705 4.68787 2.16345 4.25818 2.29626C3.8363 2.42908 3.48083 2.61658 3.19177 2.85876C2.90271 3.10095 2.68396 3.39392 2.53552 3.73767C2.3949 4.07361 2.32458 4.4447 2.32458 4.85095C2.32458 5.14001 2.36365 5.42517 2.44177 5.70642C2.5199 5.98767 2.68787 6.27673 2.94568 6.57361C3.20349 6.86267 3.57458 7.16345 4.05896 7.47595C4.55115 7.78845 5.2113 8.12439 6.03943 8.48376C6.99255 8.92126 7.79724 9.33142 8.45349 9.71423C9.11755 10.097 9.65662 10.5033 10.0707 10.933C10.4847 11.3627 10.7816 11.847 10.9613 12.3861C11.1488 12.9174 11.2426 13.5541 11.2426 14.2963C11.2426 14.8588 11.1293 15.4213 10.9027 15.9838C10.6761 16.5463 10.3324 17.0502 9.87146 17.4955C9.41833 17.9408 8.84412 18.3041 8.1488 18.5853C7.4613 18.8588 6.65271 18.9955 5.72302 18.9955C4.69177 18.9955 3.82458 18.8978 3.12146 18.7025C2.41833 18.515 1.85193 18.2689 1.42224 17.9642C1.00037 17.6595 0.695679 17.3158 0.508179 16.933C0.320679 16.5424 0.226929 16.1517 0.226929 15.7611C0.226929 15.5033 0.265991 15.265 0.344116 15.0463C0.422241 14.8197 0.535522 14.6244 0.68396 14.4603C0.84021 14.2885 1.02771 14.1556 1.24646 14.0619C1.47302 13.9603 1.72693 13.9095 2.00818 13.9095C2.26599 13.9095 2.50037 13.9564 2.7113 14.0502C2.92224 14.1361 3.09802 14.2572 3.23865 14.4135C3.38708 14.5619 3.50037 14.7416 3.57849 14.9525C3.66443 15.1556 3.7074 15.3783 3.7074 15.6205C3.7074 16.1752 3.54724 16.5931 3.22693 16.8744C2.90662 17.1556 2.49255 17.2963 1.98474 17.2963V17.3431C2.03943 17.4056 2.1449 17.4916 2.30115 17.601C2.46521 17.7103 2.68787 17.8197 2.96912 17.9291C3.25818 18.0385 3.60974 18.1361 4.0238 18.222C4.44568 18.3002 4.94177 18.3392 5.51208 18.3392C5.98083 18.3392 6.44568 18.2767 6.90662 18.1517C7.37537 18.0267 7.78943 17.847 8.1488 17.6127C8.51599 17.3783 8.81287 17.0931 9.03943 16.7572C9.26599 16.4213 9.37927 16.0424 9.37927 15.6205C9.37927 15.2611 9.31287 14.9252 9.18005 14.6127C9.04724 14.3002 8.79724 13.9838 8.43005 13.6635C8.06287 13.3353 7.55115 12.9877 6.8949 12.6205C6.24646 12.2455 5.3988 11.8236 4.35193 11.3549C3.57849 11.0267 2.94177 10.6674 2.44177 10.2767C1.94958 9.8783 1.55896 9.46033 1.2699 9.02283C0.988647 8.57751 0.793335 8.11658 0.68396 7.64001C0.574585 7.15564 0.519897 6.65955 0.519897 6.15173C0.519897 5.51111 0.637085 4.90564 0.87146 4.33533C1.10583 3.76501 1.44568 3.26892 1.89099 2.84705C2.3363 2.41736 2.88318 2.07751 3.53162 1.82751C4.18787 1.57751 4.93396 1.45251 5.7699 1.45251C6.57458 1.45251 7.2738 1.54626 7.86755 1.73376C8.46912 1.92126 8.96521 2.17126 9.35583 2.48376C9.74646 2.78845 10.0394 3.14783 10.2347 3.56189C10.4301 3.96814 10.5277 4.39392 10.5277 4.83923C10.5277 5.07361 10.4886 5.30017 10.4105 5.51892C10.3324 5.72986 10.2191 5.91736 10.0707 6.08142C9.92224 6.23767 9.73865 6.36658 9.5199 6.46814C9.30115 6.56189 9.05115 6.60876 8.7699 6.60876C8.51208 6.60876 8.27771 6.5658 8.06677 6.47986C7.85583 6.39392 7.67224 6.27673 7.51599 6.1283C7.36755 5.97986 7.25037 5.80408 7.16443 5.60095C7.0863 5.39783 7.04724 5.17517 7.04724 4.93298C7.04724 4.65955 7.09412 4.41736 7.18787 4.20642C7.28162 3.98767 7.40662 3.80798 7.56287 3.66736C7.72693 3.51892 7.91833 3.40955 8.13708 3.33923C8.35583 3.26111 8.59021 3.22205 8.84021 3.22205V3.17517C8.79333 3.12048 8.69958 3.03455 8.55896 2.91736C8.41833 2.79236 8.22302 2.67126 7.97302 2.55408C7.72302 2.42908 7.41443 2.32361 7.04724 2.23767C6.68005 2.14392 6.24646 2.09705 5.74646 2.09705ZM12.6136 2.78845V2.30798L15.0629 2.05017L16.7152 1.61658L16.9261 1.95642V17.9877L18.1332 18.1049V18.5853H12.848V18.1049L14.0551 17.9877V2.78845H12.6136ZM19.5043 7.7572V7.27673L21.9535 7.01892L23.6058 6.58533L23.8168 6.92517V17.9877L25.0238 18.1049V18.5853H19.7386V18.1049L20.9457 17.9877V7.7572H19.5043ZM20.7816 2.42517C20.7816 2.20642 20.8207 2.0033 20.8988 1.8158C20.9847 1.6283 21.098 1.46423 21.2386 1.32361C21.3793 1.18298 21.5433 1.07361 21.7308 0.995483C21.9183 0.917358 22.1176 0.878296 22.3285 0.878296C22.5394 0.878296 22.7386 0.921265 22.9261 1.0072C23.1136 1.08533 23.2777 1.1947 23.4183 1.33533C23.5668 1.47595 23.6801 1.64001 23.7582 1.82751C23.8441 2.01501 23.8871 2.21423 23.8871 2.42517C23.8871 2.63611 23.8441 2.83533 23.7582 3.02283C23.6801 3.21033 23.5707 3.3783 23.4301 3.52673C23.2894 3.66736 23.1254 3.78064 22.9379 3.86658C22.7504 3.9447 22.5472 3.98376 22.3285 3.98376C22.1097 3.98376 21.9066 3.9447 21.7191 3.86658C21.5316 3.78064 21.3676 3.66736 21.2269 3.52673C21.0863 3.38611 20.9769 3.22205 20.8988 3.03455C20.8207 2.84705 20.7816 2.64392 20.7816 2.42517ZM26.6527 12.7728C26.6527 12.1947 26.7191 11.6166 26.8519 11.0385C26.9847 10.4603 27.1957 9.89783 27.4847 9.35095C27.7816 8.79626 28.1371 8.30798 28.5511 7.88611C28.973 7.45642 29.4926 7.11267 30.1097 6.85486C30.7269 6.59705 31.3988 6.46814 32.1254 6.46814C33.2113 6.46814 34.1097 6.77283 34.8207 7.3822C35.5394 7.99158 35.8988 8.71814 35.8988 9.56189C35.8988 9.98376 35.766 10.3431 35.5004 10.64C35.2347 10.9291 34.8715 11.0736 34.4105 11.0736C33.9808 11.0736 33.6293 10.9369 33.3558 10.6635C33.0824 10.39 32.9457 10.0463 32.9457 9.6322C32.9457 9.24158 33.0707 8.90564 33.3207 8.62439C33.5785 8.34314 33.9066 8.20251 34.3051 8.20251C34.3597 8.20251 34.4574 8.21033 34.598 8.22595V8.16736C34.5043 8.01111 34.391 7.86658 34.2582 7.73376C34.1332 7.59314 33.9144 7.4447 33.6019 7.28845C33.2894 7.1322 32.9418 7.05408 32.559 7.05408C31.8715 7.05408 31.3051 7.31189 30.8597 7.82751C30.4144 8.34314 30.1019 9.01111 29.9222 9.83142C29.7426 10.6439 29.6527 11.6088 29.6527 12.726C29.6527 16.3275 30.6136 18.1283 32.5355 18.1283C32.7855 18.1283 33.016 18.1088 33.2269 18.0697C33.4457 18.0228 33.6996 17.9369 33.9886 17.8119C34.2855 17.6869 34.5785 17.476 34.8676 17.1791C35.1566 16.8822 35.434 16.5072 35.6996 16.0541L36.1566 16.3236C35.1957 18.0658 33.8207 18.9369 32.0316 18.9369C28.4457 18.9369 26.6527 16.8822 26.6527 12.7728ZM37.6215 12.7025C37.6215 12.0931 37.6801 11.4994 37.7972 10.9213C37.9144 10.3353 38.1058 9.77283 38.3715 9.23376C38.6371 8.6947 38.9613 8.22205 39.3441 7.8158C39.7269 7.40955 40.1996 7.08533 40.7621 6.84314C41.3324 6.59314 41.9613 6.46814 42.6488 6.46814C43.2972 6.46814 43.8793 6.56189 44.3949 6.74939C44.9105 6.92908 45.3402 7.18298 45.684 7.51111C46.0277 7.83923 46.3129 8.24158 46.5394 8.71814C46.766 9.18689 46.9261 9.69861 47.0199 10.2533C47.1215 10.8002 47.1722 11.4017 47.1722 12.058L46.8558 12.351H40.6215V13.0658C40.6215 16.472 41.5902 18.1752 43.5277 18.1752C44.9027 18.1752 46.0004 17.4877 46.8207 16.1127L47.2777 16.3939C46.2699 18.0892 44.8363 18.9369 42.9769 18.9369C41.1801 18.9369 39.8363 18.3822 38.9457 17.2728C38.0629 16.1635 37.6215 14.64 37.6215 12.7025ZM40.6215 11.8236L44.4066 11.6713C44.4301 11.2728 44.4418 10.89 44.4418 10.5228C44.4418 9.39001 44.3051 8.51892 44.0316 7.90955C43.766 7.30017 43.3207 6.99548 42.6957 6.99548C42.3207 6.99548 41.9965 7.12048 41.723 7.37048C41.4574 7.61267 41.2504 7.96423 41.1019 8.42517C40.9535 8.88611 40.8402 9.39001 40.7621 9.93689C40.6918 10.476 40.6449 11.1049 40.6215 11.8236ZM49.141 12.9955C49.141 12.3158 49.2035 11.6635 49.3285 11.0385C49.4535 10.4135 49.6527 9.82361 49.9261 9.26892C50.1996 8.70642 50.5355 8.22205 50.934 7.8158C51.3324 7.40173 51.8207 7.07361 52.3988 6.83142C52.9847 6.58923 53.6293 6.46814 54.3324 6.46814C54.6293 6.46814 54.9769 6.51892 55.3754 6.62048C55.7816 6.71423 56.1058 6.86267 56.348 7.0658V2.78845H54.9066V2.30798L57.3558 2.05017L59.0082 1.61658L59.2308 1.95642V17.9877L60.4261 18.1049V18.5853H56.5121L56.3597 16.9213H56.3363C55.8832 17.6947 55.4105 18.226 54.9183 18.515C54.4261 18.7963 53.8363 18.9369 53.1488 18.9369C52.9691 18.9369 52.7777 18.9174 52.5746 18.8783C52.3715 18.8392 52.1371 18.7611 51.8715 18.6439C51.6058 18.5345 51.348 18.3939 51.098 18.222C50.8558 18.0424 50.6136 17.7963 50.3715 17.4838C50.1293 17.1713 49.9183 16.8158 49.7386 16.4174C49.559 16.0189 49.4144 15.5267 49.3051 14.9408C49.1957 14.347 49.141 13.6986 49.141 12.9955ZM52.141 12.8783C52.141 16.2611 52.8402 17.9525 54.2386 17.9525C54.7933 17.9525 55.2816 17.6205 55.7035 16.9564C56.1332 16.2924 56.348 15.5814 56.348 14.8236V7.64001C55.9027 7.30408 55.4066 7.13611 54.8597 7.13611C54.5004 7.13611 54.1761 7.21033 53.8871 7.35876C53.6058 7.5072 53.3715 7.6947 53.184 7.92126C52.9965 8.14783 52.8363 8.43689 52.7035 8.78845C52.5707 9.1322 52.4691 9.46423 52.3988 9.78455C52.3285 10.1049 52.2699 10.472 52.223 10.8861C52.184 11.3002 52.1605 11.6478 52.1527 11.9291C52.1449 12.2103 52.141 12.5267 52.141 12.8783Z" fill="#555555"/>
</svg>
